<svg width="25" height="24" viewBox="0 0 25 24" fill="none" xmlns="http://www.w3.org/2000/svg">
<path d="M19.6668 11.0002H21.6668M20.6668 10.0002V12.0002M12.6668 3.00019H13.0598C11.7751 4.19389 10.9494 5.80003 10.7261 7.53941C10.5028 9.27879 10.896 11.0414 11.8375 12.5209C12.779 14.0004 14.2091 15.1032 15.8794 15.6377C17.5496 16.1721 19.3543 16.1043 20.9798 15.4462C20.3545 16.9507 19.3326 18.2572 18.023 19.2264C16.7134 20.1957 15.1652 20.7912 13.5437 20.9496C11.9221 21.1079 10.288 20.8231 8.81566 20.1256C7.34329 19.428 6.08789 18.3439 5.18336 16.9888C4.27884 15.6337 3.75912 14.0585 3.67966 12.4312C3.60019 10.8038 3.96396 9.18548 4.73215 7.7487C5.50033 6.31192 6.64413 5.11061 8.04154 4.27292C9.43894 3.43523 11.0375 2.99258 12.6668 2.99219V3.00019ZM17.6668 4.00019C17.6668 4.53062 17.8775 5.03933 18.2526 5.4144C18.6276 5.78947 19.1363 6.00019 19.6668 6.00019C19.1363 6.00019 18.6276 6.2109 18.2526 6.58597C17.8775 6.96105 17.6668 7.46975 17.6668 8.00019C17.6668 7.46975 17.4561 6.96105 17.081 6.58597C16.7059 6.2109 16.1972 6.00019 15.6668 6.00019C16.1972 6.00019 16.7059 5.78947 17.081 5.4144C17.4561 5.03933 17.6668 4.53062 17.6668 4.00019Z" stroke="white" stroke-width="2" stroke-linecap="round" stroke-linejoin="round"/>
</svg>
