<svg width="25" height="24" viewBox="0 0 25 24" fill="none" xmlns="http://www.w3.org/2000/svg">
<path d="M12.6668 3.00019H13.0598C11.7751 4.19389 10.9494 5.80003 10.7261 7.53941C10.5028 9.27879 10.896 11.0414 11.8375 12.5209C12.779 14.0004 14.2091 15.1032 15.8794 15.6377C17.5496 16.1721 19.3543 16.1043 20.9798 15.4462C20.3545 16.9507 19.3326 18.2572 18.023 19.2264C16.7134 20.1957 15.1652 20.7912 13.5437 20.9496C11.9221 21.1079 10.288 20.8231 8.81566 20.1256C7.34329 19.428 6.08789 18.3439 5.18336 16.9888C4.27884 15.6337 3.75912 14.0585 3.67966 12.4312C3.60019 10.8038 3.96396 9.18548 4.73215 7.7487C5.50033 6.31192 6.64413 5.11061 8.04154 4.27292C9.43894 3.43523 11.0375 2.99258 12.6668 2.99219V3.00019Z" stroke="white" stroke-width="2" stroke-linecap="round" stroke-linejoin="round"/>
</svg>
